#N canvas 37 0 1403 841 12;
#N canvas 0 50 450 250 (subpatch) 0;
#X array audioData 441000 float 2;
#X coords 0 1 441000 -1 200 140 1 0 0;
#X restore 174 314 graph;
#X obj 506 307 adc~;
#X obj 495 338 *~;
#X obj 479 375 tabwrite~ audioData;
#X obj 63 126 vu 20 200 empty empty -1 -10 0 12 #feffc6 #000000 1 0;
#X obj 56 54 env~;
#X msg 676 372 start;
#X msg 691 409 stop;
#X obj 783 191 tgl 45 0 empty empty S\ *\ Record\ Start/Stop 0 -10 0 16 #ff0400 #000000 #000000 0 1;
#X obj 777 259 sel 1;
#X obj 699 278 bng 20 250 50 0 empty empty empty 0 -10 0 12 #fcfcfc #000000 #000000;
#X obj 767 294 bng 20 250 50 0 empty empty empty 0 -10 0 12 #fcfcfc #000000 #000000;
#X obj 767 321 timer;
#X floatatom 774 353 10 0 0 0 - - - 16;
#X obj 799 532 tabread4~ audioData;
#X obj 868 621 *~;
#X obj 855 773 dac~;
#X obj 964 487 hsl 100 50 0 1 0 1 empty empty 3<->4\ *\ Volume 20 -10 0 16 #faff00 #000000 #000000 9900 1;
#X obj 541 154 hsl 170 50 0 3 0 1 gs gr 1<->2\ *\ Gain 70 -10 0 16 #faff00 #000000 #000000 9913 1;
#X obj 795 469 phasor~;
#X obj 826 501 *~;
#X obj 794 385 t f f;
#X obj 751 430 expr 1000 / $f1;
#X msg 736 475 0;
#X msg 859 287 0;
#X obj 857 218 bng 35 250 50 0 empty empty D\ *\ Play 0 -10 0 16 #ff0400 #000000 #000000;
#X obj 668 710 bng 35 250 50 0 empty empty X\ *\ Kill 0 -10 0 16 #ff0400 #000000 #000000;
#X msg 549 668 0;
#X msg 605 741 1;
#X obj 544 611 bng 45 250 50 0 empty empty A\ *\ Erase 0 -10 0 16 #ff0400 #000000 #000000;
#X obj 593 679 bng 45 250 50 0 empty empty Z\ *\ Overdub 0 -10 0 16 #ff0400 #000000 #000000;
#X obj 336 15 key;
#X floatatom 392 34 5 0 0 0 - - - 0;
#X obj 59 85 - 90;
#X floatatom 1059 561 8 0 0 0 G-H-J-K-L\ *\ Decimate - - 16;
#X obj 856 682 sigpack/decimate~ \$1 16;
#X msg 1240 265 1;
#X msg 1274 260 0.5;
#X msg 1295 293 0.25;
#X msg 1317 363 0.125;
#X msg 1326 324 0.0625;
#X obj 939 720 lop~;
#X obj 1055 697 hsl 170 45 500 18000 0 0 empty empty C-V-B-N-M\ *\ LowPass 45 -15 0 16 #faff00 #000000 #000000 0 1;
#X msg 1236 497 5000;
#X msg 1224 522 2000;
#X msg 1206 548 750;
#X msg 1247 467 10000;
#X msg 1266 434 16000;
#X msg 204 104 \; pd dsp \$1;
#X obj 202 20 tgl 50 0 empty empty empty 17 7 0 10 #ff0400 #000000 #000000 0 1;
#X text 216 73 DSP on/off;
#X obj 645 616 spigot~;
#X obj 1004 294 vsl 30 60 5 44.1 0 0 empty empty Q-W-E\ *\ Speed -50 -15 0 16 #faff00 #000000 #000000 0 1;
#X floatatom 878 409 24 0 0 2 CHECK\ ME - - 16;
#X obj 925 344 *;
#X msg 958 216 44.1;
#X msg 1029 248 11;
#X msg 997 236 22;
#X obj 535 20 select 115 120 100 97 122 49 50 51 52 53 54 55 56 103 104 106 107 108 99 118 98 110 109 113 119 101, f 100;
#X obj 347 82 bng 20 250 50 0 empty empty empty 0 -10 0 12 #fcfcfc #000000 #000000;
#X obj 344 113 f;
#X obj 347 175 > 0;
#X obj 321 204 spigot;
#X obj 408 107 f;
#X obj 389 213 spigot;
#X obj 407 80 bng 20 250 50 0 empty empty empty 0 -10 0 12 #fcfcfc #000000 #000000;
#X obj 1250 78 bng 20 250 50 0 empty empty empty 0 -10 0 12 #fcfcfc #000000 #000000;
#X obj 1247 109 f;
#X obj 1250 171 > 0;
#X obj 1224 200 spigot;
#X obj 1311 103 f;
#X obj 1292 209 spigot;
#X obj 1310 76 bng 20 250 50 0 empty empty empty 0 -10 0 12 #fcfcfc #000000 #000000;
#X obj 1249 142 - 0.1;
#X obj 1309 140 + 0.1;
#X obj 1308 174 < 1;
#X obj 405 178 < 3;
#X obj 348 510 openpanel;
#X obj 351 483 bng 20 250 50 0 empty empty Open\ and\ Resize 0 -10 0 12 #faff00 #000000 #000000;
#X obj 350 561 soundfiler;
#X floatatom 347 584 24 0 0 0 - - - 0;
#X obj 348 608 / 44.1;
#X obj 344 147 - 0.2;
#X obj 406 144 + 0.2;
#X obj 86 645 bng 20 250 50 0 empty empty empty 0 -10 0 12 #fcfcfc #000000 #000000;
#X obj 1319 603 vu 20 200 empty empty -1 -10 0 12 #feffc6 #000000 1 0;
#X obj 1312 531 env~;
#X obj 1315 562 - 90;
#X obj 172 224 bng 20 250 50 0 empty empty empty 0 -10 0 12 #fcfcfc #000000 #000000;
#X msg 158 249 \; audioData normalize;
#X obj 384 695 openpanel;
#X obj 385 668 bng 20 250 50 0 empty empty Open 0 -10 0 12 #ff8300 #000000 #000000;
#X obj 386 743 soundfiler;
#X floatatom 378 770 24 0 0 0 - - - 0;
#X obj 385 794 / 44.1;
#X msg 385 719 read \$1 audioData;
#X msg 349 534 read -resize \$1 audioData;
#X obj 87 670 realtime;
#X obj 100 793 soundfiler;
#X msg 85 767 write \$1 audioData;
#X floatatom 103 695 24 0 0 0 - - - 0;
#X obj 113 612 bng 20 250 50 0 empty empty Save\ Sample 0 -10 0 14 #9c00ff #000000 #000000;
#X obj 102 743 symbol;
#X obj 84 718 makefilename ./samples/sample_%d.wav;
#X obj 41 473 bng 20 250 50 0 empty empty empty 0 -10 0 12 #fcfcfc #000000 #000000;
#X floatatom 32 531 24 0 0 0 - - - 0;
#X obj 75 503 array size audioData;
#X obj 36 424 bng 20 250 50 0 empty empty Set\ 10\ seconds 0 -10 0 12 #00faff #000000 #000000;
#X msg 78 459 441000;
#X connect 1 0 2 0;
#X connect 2 0 3 0;
#X connect 2 0 5 0;
#X connect 5 0 33 0;
#X connect 6 0 3 0;
#X connect 7 0 3 0;
#X connect 8 0 9 0;
#X connect 9 0 10 0;
#X connect 9 1 11 0;
#X connect 10 0 6 0;
#X connect 10 0 12 0;
#X connect 11 0 7 0;
#X connect 11 0 12 1;
#X connect 12 0 13 0;
#X connect 13 0 21 0;
#X connect 14 0 15 0;
#X connect 14 0 51 0;
#X connect 15 0 35 0;
#X connect 15 0 86 0;
#X connect 17 0 15 1;
#X connect 17 0 67 1;
#X connect 17 0 70 1;
#X connect 18 0 2 1;
#X connect 18 0 60 1;
#X connect 18 0 63 1;
#X connect 19 0 20 0;
#X connect 20 0 14 0;
#X connect 21 0 22 0;
#X connect 21 1 54 0;
#X connect 22 0 19 0;
#X connect 23 0 19 0;
#X connect 24 0 19 1;
#X connect 25 0 24 0;
#X connect 25 0 22 0;
#X connect 26 0 23 0;
#X connect 27 0 51 1;
#X connect 28 0 51 1;
#X connect 29 0 27 0;
#X connect 30 0 28 0;
#X connect 31 0 32 0;
#X connect 32 0 58 0;
#X connect 33 0 4 0;
#X connect 34 0 35 1;
#X connect 35 0 41 0;
#X connect 36 0 34 0;
#X connect 37 0 34 0;
#X connect 38 0 34 0;
#X connect 39 0 34 0;
#X connect 40 0 34 0;
#X connect 41 0 16 0;
#X connect 41 0 16 1;
#X connect 42 0 41 1;
#X connect 43 0 42 0;
#X connect 44 0 42 0;
#X connect 45 0 42 0;
#X connect 46 0 42 0;
#X connect 47 0 42 0;
#X connect 49 0 48 0;
#X connect 51 1 3 0;
#X connect 52 0 54 1;
#X connect 53 0 20 1;
#X connect 54 0 53 0;
#X connect 55 0 52 0;
#X connect 56 0 52 0;
#X connect 57 0 52 0;
#X connect 58 0 8 0;
#X connect 58 1 26 0;
#X connect 58 2 25 0;
#X connect 58 3 29 0;
#X connect 58 4 30 0;
#X connect 58 5 59 0;
#X connect 58 6 65 0;
#X connect 58 7 66 0;
#X connect 58 8 72 0;
#X connect 58 13 36 0;
#X connect 58 14 37 0;
#X connect 58 15 38 0;
#X connect 58 16 39 0;
#X connect 58 17 40 0;
#X connect 58 18 45 0;
#X connect 58 19 44 0;
#X connect 58 20 43 0;
#X connect 58 21 46 0;
#X connect 58 22 47 0;
#X connect 58 23 55 0;
#X connect 58 24 57 0;
#X connect 58 25 56 0;
#X connect 59 0 60 0;
#X connect 60 0 82 0;
#X connect 61 0 62 1;
#X connect 62 0 18 0;
#X connect 63 0 83 0;
#X connect 64 0 18 0;
#X connect 65 0 63 0;
#X connect 66 0 67 0;
#X connect 67 0 73 0;
#X connect 68 0 69 1;
#X connect 69 0 17 0;
#X connect 70 0 74 0;
#X connect 71 0 17 0;
#X connect 72 0 70 0;
#X connect 73 0 68 0;
#X connect 73 0 69 0;
#X connect 74 0 71 0;
#X connect 74 0 75 0;
#X connect 75 0 71 1;
#X connect 76 0 64 1;
#X connect 77 0 96 0;
#X connect 78 0 77 0;
#X connect 79 0 80 0;
#X connect 80 0 81 0;
#X connect 81 0 13 0;
#X connect 82 0 61 0;
#X connect 82 0 62 0;
#X connect 83 0 64 0;
#X connect 83 0 76 0;
#X connect 84 0 97 0;
#X connect 86 0 87 0;
#X connect 87 0 85 0;
#X connect 88 0 89 0;
#X connect 90 0 95 0;
#X connect 91 0 90 0;
#X connect 92 0 93 0;
#X connect 93 0 94 0;
#X connect 94 0 13 0;
#X connect 95 0 92 0;
#X connect 96 0 79 0;
#X connect 97 0 100 0;
#X connect 99 0 98 0;
#X connect 100 0 103 0;
#X connect 101 0 97 1;
#X connect 102 0 99 0;
#X connect 103 0 102 0;
#X connect 104 0 106 0;
#X connect 106 0 105 0;
#X connect 107 0 108 0;
#X connect 108 0 106 0;
