#N canvas 37 0 1403 841 12;
#N canvas 0 50 450 250 (subpatch) 0;
#X array audioData 220500 float 2;
#X coords 0 1 220500 -1 200 140 1 0 0;
#X restore 144 268 graph;
#X obj 386 253 adc~;
#X obj 410 288 *~;
#X obj 384 334 tabwrite~ audioData;
#X obj 63 126 vu 20 200 empty empty -1 -10 0 12 #feffc6 #000000 1 0;
#X obj 56 54 env~;
#X msg 538 385 start;
#X msg 431 366 stop;
#X obj 514 89 tgl 45 0 empty empty S\ *\ Record\ Start/Stop 0 -10 0 16 #ff0400 #000000 #000000 0 1;
#X obj 639 272 sel 1;
#X obj 561 291 bng 20 250 50 0 empty empty empty 0 -10 0 12 #fcfcfc #000000 #000000;
#X obj 629 307 bng 20 250 50 0 empty empty empty 0 -10 0 12 #fcfcfc #000000 #000000;
#X obj 629 334 timer;
#X floatatom 785 251 10 0 0 0 - - - 16;
#X obj 801 424 tabread4~ audioData;
#X obj 1076 527 dac~;
#X obj 484 197 hsl 170 50 0 3 0 1 gs gr 1<->2\ *\ Gain 0 -10 0 16 #faff00 #000000 #000000 13833 1;
#X obj 641 421 phasor~;
#X obj 758 395 *~;
#X obj 759 291 t f f;
#X obj 599 388 expr 1000 / $f1;
#X msg 622 467 0;
#X msg 663 163 0;
#X obj 648 110 bng 35 250 50 0 empty empty D\ *\ Play 0 -10 0 16 #ff0400 #000000 #000000;
#X obj 512 470 bng 35 250 50 0 empty empty X\ *\ Kill 0 -10 0 16 #ff0400 #000000 #000000;
#X msg 292 517 0;
#X msg 381 517 1;
#X obj 287 464 bng 45 250 50 0 empty empty A\ *\ Erase 0 -10 0 16 #ff0400 #000000 #000000;
#X obj 384 463 bng 45 250 50 0 empty empty Z\ *\ Overdub 0 -10 0 16 #ff0400 #000000 #000000;
#X obj 407 14 key;
#X floatatom 467 15 5 0 0 0 - - - 0;
#X obj 59 85 - 90;
#X floatatom 1172 166 8 0 0 2 G-H-J-K-L\ *\ Decimate - - 16;
#X obj 855 463 sigpack/decimate~ \$1 16;
#X msg 859 59 1;
#X msg 893 54 0.5;
#X msg 919 83 0.25;
#X msg 937 58 0.125;
#X msg 965 83 0.0625;
#X obj 1176 306 hsl 170 45 500 18000 0 0 empty empty C-V-B-N-M\ *\ BandPass 0 -15 0 16 #faff00 #000000 #000000 0 1;
#X msg 1068 114 5000;
#X msg 1043 86 2000;
#X msg 1023 52 750;
#X msg 1091 88 10000;
#X msg 204 104 \; pd dsp \$1;
#X obj 202 20 tgl 50 0 empty empty empty 17 7 0 10 #ff0400 #000000 #000000 0 1;
#X text 216 73 DSP on/off;
#X obj 438 515 spigot~;
#X obj 960 299 vsl 30 60 5 44.1 0 0 empty empty Q-W-E\ *\ Speed -50 -15 0 16 #faff00 #000000 #000000 0 1;
#X floatatom 806 371 24 0 0 2 CHECK\ ME - - 16;
#X obj 766 333 *;
#X msg 1170 54 44.1;
#X msg 1249 53 11;
#X msg 1212 55 22;
#X obj 555 12 select 115 120 100 97 122 49 50 51 52 53 54 55 56 103 104 106 107 108 99 118 98 110 109 113 119 101, f 100;
#X obj 338 64 bng 20 250 50 0 empty empty empty 0 -10 0 12 #fcfcfc #000000 #000000;
#X obj 333 89 f;
#X obj 333 137 > 0;
#X obj 318 161 spigot;
#X obj 391 86 f;
#X obj 384 163 spigot;
#X obj 398 62 bng 20 250 50 0 empty empty empty 0 -10 0 12 #fcfcfc #000000 #000000;
#X obj 741 68 bng 20 250 50 0 empty empty empty 0 -10 0 12 #fcfcfc #000000 #000000;
#X obj 739 94 f;
#X obj 728 168 spigot;
#X obj 798 89 f;
#X obj 789 164 spigot;
#X obj 801 66 bng 20 250 50 0 empty empty empty 0 -10 0 12 #fcfcfc #000000 #000000;
#X obj 734 120 - 0.1;
#X obj 794 113 + 0.1;
#X obj 395 138 < 3;
#X obj 296 634 openpanel;
#X obj 299 607 bng 20 250 50 0 empty empty Open\ and\ Resize 0 -10 0 12 #faff00 #000000 #000000;
#X obj 298 685 soundfiler;
#X floatatom 295 708 24 0 0 0 - - - 0;
#X obj 296 732 / 44.1;
#X obj 324 113 - 0.2;
#X obj 387 112 + 0.2;
#X obj 1299 451 vu 20 200 empty empty -1 -10 0 12 #feffc6 #000000 1 0;
#X obj 1292 379 env~;
#X obj 1295 410 - 90;
#X obj 160 188 bng 20 250 50 0 empty empty empty 0 -10 0 12 #fcfcfc #000000 #000000;
#X msg 146 213 \; audioData normalize;
#X obj 513 631 openpanel;
#X obj 514 604 bng 20 250 50 0 empty empty Open 0 -10 0 12 #ff8300 #000000 #000000;
#X obj 515 679 soundfiler;
#X floatatom 507 706 24 0 0 0 - - - 0;
#X obj 514 730 / 44.1;
#X msg 514 655 read \$1 audioData;
#X msg 297 658 read -resize \$1 audioData;
#X obj 53 731 soundfiler;
#X msg 69 698 write \$1 audioData;
#X obj 62 595 bng 20 250 50 0 empty empty Save\ Sample 0 -10 0 14 #9c00ff #000000 #000000;
#X obj 69 463 bng 20 250 50 0 empty empty empty 0 -10 0 12 #fcfcfc #000000 #000000;
#X floatatom 70 492 24 0 0 0 - - - 0;
#X obj 98 464 array size audioData;
#X obj 69 435 bng 20 250 50 0 empty empty Set\ 10\ seconds 0 -10 0 12 #00faff #000000 #000000;
#X msg 101 436 441000;
#X obj 1033 443 bp~ 1000 100;
#X obj 1082 483 *~;
#X msg 1110 55 12000;
#X obj 1177 219 hsl 170 50 1 6 0 1 gs gr 3<->4\ *\ Volume 0 -10 0 16 #faff00 #000000 #000000 3800 1;
#X obj 744 143 > 1;
#X obj 800 137 < 6;
#X obj 52 666 makefilename ./sample/%s.wav;
#N canvas 646 183 698 499 datetime 0;
#X obj 23 136 date, f 15;
#X obj 360 173 time, f 18;
#X obj 26 24 inlet;
#X obj 33 85 t b b;
#X obj 51 177 makefilename %02d;
#X obj 195 178 makefilename %02d;
#X obj 64 314 makesymbol %s%s%s_%s%s%s;
#X obj 53 376 outlet;
#X obj 70 261 pack float symbol symbol float float float;
#X connect 0 0 8 0;
#X connect 0 1 4 0;
#X connect 0 2 5 0;
#X connect 1 0 8 3;
#X connect 1 1 8 4;
#X connect 1 2 8 5;
#X connect 2 0 3 0;
#X connect 3 0 0 0;
#X connect 3 1 1 0;
#X connect 4 0 8 1;
#X connect 5 0 8 2;
#X connect 6 0 7 0;
#X connect 8 0 6 0;
#X restore 54 630 pd datetime;
#X obj 897 306 bng 50 250 50 0 empty empty empty 0 -10 0 12 #faff00 #000000 #000000;
#X obj 1065 737 soundfiler;
#X obj 1074 601 bng 20 250 50 0 empty empty Save\ New\ Sample 0 -10 0 14 #9c00ff #000000 #000000;
#X obj 1064 672 makefilename ./sample/%s.wav;
#N canvas 646 183 698 499 datetime 0;
#X obj 23 136 date, f 15;
#X obj 360 173 time, f 18;
#X obj 26 24 inlet;
#X obj 33 85 t b b;
#X obj 51 177 makefilename %02d;
#X obj 195 178 makefilename %02d;
#X obj 64 314 makesymbol %s%s%s_%s%s%s;
#X obj 53 376 outlet;
#X obj 70 261 pack float symbol symbol float float float;
#X connect 0 0 8 0;
#X connect 0 1 4 0;
#X connect 0 2 5 0;
#X connect 1 0 8 3;
#X connect 1 1 8 4;
#X connect 1 2 8 5;
#X connect 2 0 3 0;
#X connect 3 0 0 0;
#X connect 3 1 1 0;
#X connect 4 0 8 1;
#X connect 5 0 8 2;
#X connect 6 0 7 0;
#X connect 8 0 6 0;
#X restore 1066 636 pd datetime;
#X msg 1081 704 write \$1 audioData2;
#N canvas 0 50 450 250 (subpatch) 0;
#X array audioData2 220500 float 2;
#X coords 0 1 220500 -1 200 140 1 0 0;
#X restore 691 546 graph;
#X obj 908 676 tabwrite~ audioData2;
#X msg 917 648 start;
#X msg 1003 643 stop;
#X obj 919 616 bng 20 250 50 0 empty empty empty 0 -10 0 12 #9c00ff #000000 #000000;
#X obj 1006 614 bng 20 250 50 0 empty empty empty 0 -10 0 12 #9c00ff #000000 #000000;
#X obj 891 703 bng 20 250 50 0 empty empty empty 0 -10 0 12 #9c00ff #000000 #000000;
#X msg 888 734 \; audioData2 normalize;
#X connect 1 0 2 0;
#X connect 2 0 3 0;
#X connect 2 0 5 0;
#X connect 5 0 31 0;
#X connect 6 0 3 0;
#X connect 7 0 3 0;
#X connect 8 0 9 0;
#X connect 9 0 10 0;
#X connect 9 1 11 0;
#X connect 10 0 6 0;
#X connect 10 0 12 0;
#X connect 11 0 7 0;
#X connect 11 0 12 1;
#X connect 12 0 13 0;
#X connect 13 0 19 0;
#X connect 14 0 47 0;
#X connect 14 0 33 0;
#X connect 16 0 2 1;
#X connect 16 0 56 1;
#X connect 16 0 59 1;
#X connect 17 0 18 0;
#X connect 18 0 14 0;
#X connect 19 0 20 0;
#X connect 19 1 50 0;
#X connect 20 0 17 0;
#X connect 21 0 17 0;
#X connect 22 0 17 1;
#X connect 23 0 22 0;
#X connect 23 0 20 0;
#X connect 24 0 21 0;
#X connect 25 0 47 1;
#X connect 26 0 47 1;
#X connect 27 0 25 0;
#X connect 28 0 26 0;
#X connect 29 0 30 0;
#X connect 30 0 54 0;
#X connect 31 0 4 0;
#X connect 32 0 33 1;
#X connect 33 0 98 0;
#X connect 34 0 32 0;
#X connect 35 0 32 0;
#X connect 36 0 32 0;
#X connect 37 0 32 0;
#X connect 38 0 32 0;
#X connect 39 0 98 1;
#X connect 40 0 39 0;
#X connect 41 0 39 0;
#X connect 42 0 39 0;
#X connect 43 0 39 0;
#X connect 45 0 44 0;
#X connect 47 1 3 0;
#X connect 48 0 50 1;
#X connect 49 0 18 1;
#X connect 50 0 49 0;
#X connect 51 0 48 0;
#X connect 52 0 48 0;
#X connect 53 0 48 0;
#X connect 54 0 8 0;
#X connect 54 1 24 0;
#X connect 54 2 23 0;
#X connect 54 3 27 0;
#X connect 54 4 28 0;
#X connect 54 5 55 0;
#X connect 54 6 61 0;
#X connect 54 7 62 0;
#X connect 54 8 67 0;
#X connect 54 13 34 0;
#X connect 54 14 35 0;
#X connect 54 15 36 0;
#X connect 54 16 37 0;
#X connect 54 17 38 0;
#X connect 54 18 42 0;
#X connect 54 19 41 0;
#X connect 54 20 40 0;
#X connect 54 21 43 0;
#X connect 54 22 100 0;
#X connect 54 23 51 0;
#X connect 54 24 53 0;
#X connect 54 25 52 0;
#X connect 55 0 56 0;
#X connect 56 0 76 0;
#X connect 57 0 58 1;
#X connect 58 0 16 0;
#X connect 59 0 77 0;
#X connect 60 0 16 0;
#X connect 61 0 59 0;
#X connect 62 0 63 0;
#X connect 63 0 68 0;
#X connect 64 0 101 0;
#X connect 65 0 69 0;
#X connect 66 0 101 0;
#X connect 67 0 65 0;
#X connect 68 0 64 0;
#X connect 68 0 102 0;
#X connect 69 0 66 0;
#X connect 69 0 103 0;
#X connect 70 0 60 1;
#X connect 71 0 89 0;
#X connect 72 0 71 0;
#X connect 73 0 74 0;
#X connect 74 0 75 0;
#X connect 75 0 13 0;
#X connect 76 0 57 0;
#X connect 76 0 58 0;
#X connect 77 0 60 0;
#X connect 77 0 70 0;
#X connect 79 0 80 0;
#X connect 80 0 78 0;
#X connect 81 0 82 0;
#X connect 83 0 88 0;
#X connect 84 0 83 0;
#X connect 85 0 86 0;
#X connect 86 0 87 0;
#X connect 87 0 13 0;
#X connect 88 0 85 0;
#X connect 89 0 73 0;
#X connect 91 0 90 0;
#X connect 92 0 105 0;
#X connect 93 0 95 0;
#X connect 95 0 94 0;
#X connect 96 0 97 0;
#X connect 97 0 95 0;
#X connect 98 0 99 0;
#X connect 99 0 15 0;
#X connect 99 0 15 1;
#X connect 99 0 79 0;
#X connect 99 0 113 0;
#X connect 100 0 39 0;
#X connect 101 0 99 1;
#X connect 101 0 63 1;
#X connect 101 0 65 1;
#X connect 102 0 64 1;
#X connect 103 0 66 1;
#X connect 104 0 91 0;
#X connect 105 0 104 0;
#X connect 106 0 13 0;
#X connect 108 0 110 0;
#X connect 109 0 111 0;
#X connect 110 0 109 0;
#X connect 111 0 107 0;
#X connect 114 0 113 0;
#X connect 115 0 113 0;
#X connect 116 0 114 0;
#X connect 117 0 115 0;
#X connect 118 0 119 0;
